<svg width="25" height="24" viewBox="0 0 25 24" fill="none" xmlns="http://www.w3.org/2000/svg">
<g clip-path="url(#clip0_545_700)">
<path d="M8.21617 21.75C17.2705 21.75 22.2243 14.2467 22.2243 7.74186C22.2243 7.53092 22.2196 7.3153 22.2102 7.10436C23.1739 6.40746 24.0055 5.54425 24.666 4.5553C23.7685 4.9546 22.8157 5.21538 21.8399 5.32874C22.8673 4.71291 23.6365 3.74547 24.0051 2.60577C23.0386 3.17856 21.9816 3.58261 20.8795 3.80061C20.1369 3.01156 19.155 2.48912 18.0857 2.31405C17.0164 2.13899 15.9192 2.32105 14.9638 2.8321C14.0083 3.34314 13.2478 4.15471 12.7999 5.14131C12.3519 6.12792 12.2414 7.23462 12.4855 8.2903C10.5285 8.19209 8.61395 7.6837 6.866 6.7981C5.11804 5.91249 3.57571 4.66944 2.33898 3.14952C1.71042 4.23324 1.51807 5.51565 1.80105 6.73609C2.08402 7.95654 2.82108 9.02345 3.86242 9.71999C3.08064 9.69517 2.31599 9.48468 1.63164 9.10592V9.16686C1.63094 10.3041 2.02411 11.4066 2.74433 12.2868C3.46454 13.167 4.46734 13.7706 5.58227 13.995C4.85807 14.1931 4.098 14.222 3.36086 14.0794C3.67547 15.0574 4.28759 15.9129 5.11179 16.5263C5.93598 17.1398 6.93114 17.4806 7.95836 17.5012C6.21444 18.8711 4.06019 19.6141 1.84258 19.6106C1.4493 19.61 1.05641 19.5859 0.666016 19.5384C2.91887 20.9837 5.53955 21.7514 8.21617 21.75Z" fill="white"/>
</g>
<defs>
<clipPath id="clip0_545_700">
<rect width="24" height="24" fill="white" transform="translate(0.666016)"/>
</clipPath>
</defs>
</svg>
